<svg xmlns="http://www.w3.org/2000/svg" width="32" height="32" viewBox="0 0 32 32">
  <!-- White background -->
  <rect width="32" height="32" rx="5" fill="white"/>
  <!-- Logo icon: original viewBox 0 0 100 112, scaled to ~26x29 and centered -->
  <g transform="translate(3, 1.5) scale(0.26)">
    <!-- Outer hexagon + speech-bubble tail (dark brown) -->
    <path fill="#3d2008" d="M50 4 L84 23 L84 71 L66 82 L55 82 L43 110 L31 82 L16 71 L16 23 Z"/>
    <!-- White inner ring -->
    <path fill="#ffffff" d="M50 11 L79 27 L79 67 L63 77 L53 77 L43 77 L21 67 L21 27 Z"/>
    <!-- Gold fill hexagon -->
    <path fill="#c49a2a" d="M50 16 L76 31 L76 65 L62 73 L50 73 L38 73 L24 65 L24 31 Z"/>
    <!-- White head -->
    <circle cx="50" cy="37" r="11.5" fill="#ffffff"/>
    <!-- White torso / shoulders -->
    <path fill="#ffffff" d="M24 74 C24 55 36 50 50 50 C64 50 76 55 76 74 Z"/>
    <!-- Dark brown tie -->
    <path fill="#3d2008" d="M47.5 53.5 L52.5 53.5 L54.5 67 L50 71.5 L45.5 67 Z"/>
  </g>
</svg>
